<svg xmlns="http://www.w3.org/2000/svg" xmlns:svg="http://www.w3.org/2000/svg" xmlns:xlink="http://www.w3.org/1999/xlink" id="svg93" width="349.447" height="165.439" version="1.1"><metadata id="metadata99"/><defs id="defs97"><mask id="holes-3"><rect style="fill:#fff" id="rect80-6" width="120" height="120" x="-60" y="-60"/><circle id="hole-7" cx="0" cy="-40" r="3"/><use id="use83-5" width="100%" height="100%" x="0" y="0" transform="rotate(72)" xlink:href="#hole-7"/><use id="use85-3" width="100%" height="100%" x="0" y="0" transform="rotate(144)" xlink:href="#hole-7"/><use id="use87-5" width="100%" height="100%" x="0" y="0" transform="rotate(-144)" xlink:href="#hole-7"/><use id="use89-6" width="100%" height="100%" x="0" y="0" transform="rotate(-72)" xlink:href="#hole-7"/></mask><mask id="holes-3-2"><rect style="fill:#fff" id="rect80-6-6" width="120" height="120" x="-60" y="-60"/><circle id="hole-7-1" cx="0" cy="-40" r="3"/><use id="use83-5-0" width="100%" height="100%" x="0" y="0" transform="rotate(72)" xlink:href="#hole-7-1"/><use id="use85-3-6" width="100%" height="100%" x="0" y="0" transform="rotate(144)" xlink:href="#hole-7-1"/><use id="use87-5-1" width="100%" height="100%" x="0" y="0" transform="rotate(-144)" xlink:href="#hole-7-1"/><use id="use89-6-5" width="100%" height="100%" x="0" y="0" transform="rotate(-72)" xlink:href="#hole-7-1"/></mask><mask id="holes-3-2-4"><rect style="fill:#fff" id="rect80-6-6-4" width="120" height="120" x="-60" y="-60"/><circle id="hole-7-1-4" cx="0" cy="-40" r="3"/><use id="use83-5-0-4" width="100%" height="100%" x="0" y="0" transform="rotate(72)" xlink:href="#hole-7-1-4"/><use id="use85-3-6-7" width="100%" height="100%" x="0" y="0" transform="rotate(144)" xlink:href="#hole-7-1-4"/><use id="use87-5-1-6" width="100%" height="100%" x="0" y="0" transform="rotate(-144)" xlink:href="#hole-7-1-4"/><use id="use89-6-5-3" width="100%" height="100%" x="0" y="0" transform="rotate(-72)" xlink:href="#hole-7-1-4"/></mask></defs><g id="logo" transform="translate(52.499858,52.499858)"><path id="r" d="M -9,-15 H 4 c 8,0 8,8 0,8 H -9 Z M -40,22 H 0 V 11 H -9 V 3 H 1 C 12,3 6,22 15,22 H 40 V 3 h -6 v 2 c 0,8 -9,7 -10,2 -1,-5 -5,-9 -6,-9 15,-8 6,-24 -6,-24 h -47 v 11 h 10 v 26 h -15 z" transform="translate(0.5,0.5)" style="stroke:#231f1f;stroke-width:1;stroke-linejoin:round;fill:#231f1f;fill-opacity:1;stroke-opacity:1"/><g id="gear" mask="url(#holes)"><circle id="circle3" cx="0" cy="0" r="43" style="fill:none;stroke:#231f1f;stroke-width:9;stroke-opacity:1"/><g id="cogs"><polygon id="cog" points="46 -3 46 3 51 0" style="stroke:#231f1f;stroke-width:3;stroke-linejoin:round;stroke-opacity:1;fill:#231f1f;fill-opacity:1"/><use id="use6" width="100%" height="100%" x="0" y="0" transform="rotate(11.25)" xlink:href="#cog" style="stroke:#231f1f;stroke-opacity:1;fill:#231f1f;fill-opacity:1"/><use id="use8" width="100%" height="100%" x="0" y="0" transform="rotate(22.5)" xlink:href="#cog" style="stroke:#231f1f;stroke-opacity:1;fill:#231f1f;fill-opacity:1"/><use id="use10" width="100%" height="100%" x="0" y="0" transform="rotate(33.75)" xlink:href="#cog" style="stroke:#231f1f;stroke-opacity:1;fill:#231f1f;fill-opacity:1"/><use id="use12" width="100%" height="100%" x="0" y="0" transform="rotate(45)" xlink:href="#cog" style="stroke:#231f1f;stroke-opacity:1;fill:#231f1f;fill-opacity:1"/><use id="use14" width="100%" height="100%" x="0" y="0" transform="rotate(56.25)" xlink:href="#cog" style="stroke:#231f1f;stroke-opacity:1;fill:#231f1f;fill-opacity:1"/><use id="use16" width="100%" height="100%" x="0" y="0" transform="rotate(67.5)" xlink:href="#cog" style="stroke:#231f1f;stroke-opacity:1;fill:#231f1f;fill-opacity:1"/><use id="use18" width="100%" height="100%" x="0" y="0" transform="rotate(78.75)" xlink:href="#cog" style="stroke:#231f1f;stroke-opacity:1;fill:#231f1f;fill-opacity:1"/><use id="use20" width="100%" height="100%" x="0" y="0" transform="rotate(90)" xlink:href="#cog" style="stroke:#231f1f;stroke-opacity:1;fill:#231f1f;fill-opacity:1"/><use id="use22" width="100%" height="100%" x="0" y="0" transform="rotate(101.25)" xlink:href="#cog" style="stroke:#231f1f;stroke-opacity:1;fill:#231f1f;fill-opacity:1"/><use id="use24" width="100%" height="100%" x="0" y="0" transform="rotate(112.5)" xlink:href="#cog" style="stroke:#231f1f;stroke-opacity:1;fill:#231f1f;fill-opacity:1"/><use id="use26" width="100%" height="100%" x="0" y="0" transform="rotate(123.75)" xlink:href="#cog" style="stroke:#231f1f;stroke-opacity:1;fill:#231f1f;fill-opacity:1"/><use id="use28" width="100%" height="100%" x="0" y="0" transform="rotate(135)" xlink:href="#cog" style="stroke:#231f1f;stroke-opacity:1;fill:#231f1f;fill-opacity:1"/><use id="use30" width="100%" height="100%" x="0" y="0" transform="rotate(146.25)" xlink:href="#cog" style="stroke:#231f1f;stroke-opacity:1;fill:#231f1f;fill-opacity:1"/><use id="use32" width="100%" height="100%" x="0" y="0" transform="rotate(157.5)" xlink:href="#cog" style="stroke:#231f1f;stroke-opacity:1;fill:#231f1f;fill-opacity:1"/><use id="use34" width="100%" height="100%" x="0" y="0" transform="rotate(168.75)" xlink:href="#cog" style="stroke:#231f1f;stroke-opacity:1;fill:#231f1f;fill-opacity:1"/><use id="use36" width="100%" height="100%" x="0" y="0" transform="scale(-1)" xlink:href="#cog" style="stroke:#231f1f;stroke-opacity:1;fill:#231f1f;fill-opacity:1"/><use id="use38" width="100%" height="100%" x="0" y="0" transform="rotate(-168.75)" xlink:href="#cog" style="stroke:#231f1f;stroke-opacity:1;fill:#231f1f;fill-opacity:1"/><use id="use40" width="100%" height="100%" x="0" y="0" transform="rotate(-157.5)" xlink:href="#cog" style="stroke:#231f1f;stroke-opacity:1;fill:#231f1f;fill-opacity:1"/><use id="use42" width="100%" height="100%" x="0" y="0" transform="rotate(-146.25)" xlink:href="#cog" style="stroke:#231f1f;stroke-opacity:1;fill:#231f1f;fill-opacity:1"/><use id="use44" width="100%" height="100%" x="0" y="0" transform="rotate(-135)" xlink:href="#cog" style="stroke:#231f1f;stroke-opacity:1;fill:#231f1f;fill-opacity:1"/><use id="use46" width="100%" height="100%" x="0" y="0" transform="rotate(-123.75)" xlink:href="#cog" style="stroke:#231f1f;stroke-opacity:1;fill:#231f1f;fill-opacity:1"/><use id="use48" width="100%" height="100%" x="0" y="0" transform="rotate(-112.5)" xlink:href="#cog" style="stroke:#231f1f;stroke-opacity:1;fill:#231f1f;fill-opacity:1"/><use id="use50" width="100%" height="100%" x="0" y="0" transform="rotate(-101.25)" xlink:href="#cog" style="stroke:#231f1f;stroke-opacity:1;fill:#231f1f;fill-opacity:1"/><use id="use52" width="100%" height="100%" x="0" y="0" transform="rotate(-90)" xlink:href="#cog" style="stroke:#231f1f;stroke-opacity:1;fill:#231f1f;fill-opacity:1"/><use id="use54" width="100%" height="100%" x="0" y="0" transform="rotate(-78.75)" xlink:href="#cog" style="stroke:#231f1f;stroke-opacity:1;fill:#231f1f;fill-opacity:1"/><use id="use56" width="100%" height="100%" x="0" y="0" transform="rotate(-67.5)" xlink:href="#cog" style="stroke:#231f1f;stroke-opacity:1;fill:#231f1f;fill-opacity:1"/><use id="use58" width="100%" height="100%" x="0" y="0" transform="rotate(-56.25)" xlink:href="#cog" style="stroke:#231f1f;stroke-opacity:1;fill:#231f1f;fill-opacity:1"/><use id="use60" width="100%" height="100%" x="0" y="0" transform="rotate(-45)" xlink:href="#cog" style="stroke:#231f1f;stroke-opacity:1;fill:#231f1f;fill-opacity:1"/><use id="use62" width="100%" height="100%" x="0" y="0" transform="rotate(-33.75)" xlink:href="#cog" style="stroke:#231f1f;stroke-opacity:1;fill:#231f1f;fill-opacity:1"/><use id="use64" width="100%" height="100%" x="0" y="0" transform="rotate(-22.5)" xlink:href="#cog" style="stroke:#231f1f;stroke-opacity:1;fill:#231f1f;fill-opacity:1"/><use id="use66" width="100%" height="100%" x="0" y="0" transform="rotate(-11.25)" xlink:href="#cog" style="stroke:#231f1f;stroke-opacity:1;fill:#231f1f;fill-opacity:1"/></g><g id="mounts"><polygon id="mount" points="7 -42 -7 -42 0 -35" style="stroke:#231f1f;stroke-width:6;stroke-linejoin:round;fill:#231f1f;fill-opacity:1;stroke-opacity:1"/><use id="use70" width="100%" height="100%" x="0" y="0" transform="rotate(72)" xlink:href="#mount" style="fill:#231f1f;fill-opacity:1;stroke:#231f1f;stroke-opacity:1"/><use id="use72" width="100%" height="100%" x="0" y="0" transform="rotate(144)" xlink:href="#mount" style="fill:#231f1f;fill-opacity:1;stroke:#231f1f;stroke-opacity:1"/><use id="use74" width="100%" height="100%" x="0" y="0" transform="rotate(-144)" xlink:href="#mount" style="fill:#231f1f;fill-opacity:1;stroke:#231f1f;stroke-opacity:1"/><use id="use76" width="100%" height="100%" x="0" y="0" transform="rotate(-72)" xlink:href="#mount" style="fill:#231f1f;fill-opacity:1;stroke:#231f1f;stroke-opacity:1"/></g></g><mask id="holes"><rect id="rect80" width="120" height="120" x="-60" y="-60" style="fill:#fff"/><circle id="hole" cx="0" cy="-40" r="3"/><use id="use83" width="100%" height="100%" x="0" y="0" transform="rotate(72)" xlink:href="#hole"/><use id="use85" width="100%" height="100%" x="0" y="0" transform="rotate(144)" xlink:href="#hole"/><use id="use87" width="100%" height="100%" x="0" y="0" transform="rotate(-144)" xlink:href="#hole"/><use id="use89" width="100%" height="100%" x="0" y="0" transform="rotate(-72)" xlink:href="#hole"/></mask></g><g id="logo-2" transform="translate(133.98228,112.93943)"><path style="stroke:#231f1f;stroke-width:1;stroke-linejoin:round;stroke-opacity:1;fill:#231f1f;fill-opacity:1" id="r-9" d="m 138.75,41.117188 v 11 h 10 v 26 h -15 v 11 h 28.5 11.5 12 c 12,0 21,-16 6,-24 5.60322,-2.988384 7.85742,-7.092488 7.85742,-11.0625 0,-6.657841 -6.33999,-12.937501 -13.85742,-12.9375 z m 26,11 h 13 c 8,0 8,8 0,8 h -3 -10 z m 0,18 h 13 c 8,0 8,8 0,8 h -4 -9 z" transform="translate(-173.25015,-66.617748)"/><g id="gear-1" mask="url(#holes-3)"><circle style="fill:none;stroke:#231f1f;stroke-width:9;stroke-opacity:1" id="circle3-2" cx="0" cy="0" r="43"/><g id="cogs-7"><polygon style="stroke:#231f1f;stroke-width:3;stroke-linejoin:round;stroke-opacity:1;fill:#231f1f;fill-opacity:1" id="cog-0" points="46 -3 46 3 51 0"/><use id="use6-9" width="100%" height="100%" x="0" y="0" transform="rotate(11.25)" xlink:href="#cog-0" style="stroke:#231f1f;stroke-opacity:1;fill:#231f1f;fill-opacity:1"/><use id="use8-3" width="100%" height="100%" x="0" y="0" transform="rotate(22.5)" xlink:href="#cog-0" style="stroke:#231f1f;stroke-opacity:1;fill:#231f1f;fill-opacity:1"/><use id="use10-6" width="100%" height="100%" x="0" y="0" transform="rotate(33.75)" xlink:href="#cog-0" style="stroke:#231f1f;stroke-opacity:1;fill:#231f1f;fill-opacity:1"/><use id="use12-0" width="100%" height="100%" x="0" y="0" transform="rotate(45)" xlink:href="#cog-0" style="stroke:#231f1f;stroke-opacity:1;fill:#231f1f;fill-opacity:1"/><use id="use14-6" width="100%" height="100%" x="0" y="0" transform="rotate(56.25)" xlink:href="#cog-0" style="stroke:#231f1f;stroke-opacity:1;fill:#231f1f;fill-opacity:1"/><use id="use16-2" width="100%" height="100%" x="0" y="0" transform="rotate(67.5)" xlink:href="#cog-0" style="stroke:#231f1f;stroke-opacity:1;fill:#231f1f;fill-opacity:1"/><use id="use18-6" width="100%" height="100%" x="0" y="0" transform="rotate(78.75)" xlink:href="#cog-0" style="stroke:#231f1f;stroke-opacity:1;fill:#231f1f;fill-opacity:1"/><use id="use20-1" width="100%" height="100%" x="0" y="0" transform="rotate(90)" xlink:href="#cog-0" style="stroke:#231f1f;stroke-opacity:1;fill:#231f1f;fill-opacity:1"/><use id="use22-8" width="100%" height="100%" x="0" y="0" transform="rotate(101.25)" xlink:href="#cog-0" style="stroke:#231f1f;stroke-opacity:1;fill:#231f1f;fill-opacity:1"/><use id="use24-7" width="100%" height="100%" x="0" y="0" transform="rotate(112.5)" xlink:href="#cog-0" style="stroke:#231f1f;stroke-opacity:1;fill:#231f1f;fill-opacity:1"/><use id="use26-9" width="100%" height="100%" x="0" y="0" transform="rotate(123.75)" xlink:href="#cog-0" style="stroke:#231f1f;stroke-opacity:1;fill:#231f1f;fill-opacity:1"/><use id="use28-2" width="100%" height="100%" x="0" y="0" transform="rotate(135)" xlink:href="#cog-0" style="stroke:#231f1f;stroke-opacity:1;fill:#231f1f;fill-opacity:1"/><use id="use30-0" width="100%" height="100%" x="0" y="0" transform="rotate(146.25)" xlink:href="#cog-0" style="stroke:#231f1f;stroke-opacity:1;fill:#231f1f;fill-opacity:1"/><use id="use32-2" width="100%" height="100%" x="0" y="0" transform="rotate(157.5)" xlink:href="#cog-0" style="stroke:#231f1f;stroke-opacity:1;fill:#231f1f;fill-opacity:1"/><use id="use34-3" width="100%" height="100%" x="0" y="0" transform="rotate(168.75)" xlink:href="#cog-0" style="stroke:#231f1f;stroke-opacity:1;fill:#231f1f;fill-opacity:1"/><use id="use36-7" width="100%" height="100%" x="0" y="0" transform="scale(-1)" xlink:href="#cog-0" style="stroke:#231f1f;stroke-opacity:1;fill:#231f1f;fill-opacity:1"/><use id="use38-5" width="100%" height="100%" x="0" y="0" transform="rotate(-168.75)" xlink:href="#cog-0" style="stroke:#231f1f;stroke-opacity:1;fill:#231f1f;fill-opacity:1"/><use id="use40-9" width="100%" height="100%" x="0" y="0" transform="rotate(-157.5)" xlink:href="#cog-0" style="stroke:#231f1f;stroke-opacity:1;fill:#231f1f;fill-opacity:1"/><use id="use42-2" width="100%" height="100%" x="0" y="0" transform="rotate(-146.25)" xlink:href="#cog-0" style="stroke:#231f1f;stroke-opacity:1;fill:#231f1f;fill-opacity:1"/><use id="use44-2" width="100%" height="100%" x="0" y="0" transform="rotate(-135)" xlink:href="#cog-0" style="stroke:#231f1f;stroke-opacity:1;fill:#231f1f;fill-opacity:1"/><use id="use46-8" width="100%" height="100%" x="0" y="0" transform="rotate(-123.75)" xlink:href="#cog-0" style="stroke:#231f1f;stroke-opacity:1;fill:#231f1f;fill-opacity:1"/><use id="use48-9" width="100%" height="100%" x="0" y="0" transform="rotate(-112.5)" xlink:href="#cog-0" style="stroke:#231f1f;stroke-opacity:1;fill:#231f1f;fill-opacity:1"/><use id="use50-7" width="100%" height="100%" x="0" y="0" transform="rotate(-101.25)" xlink:href="#cog-0" style="stroke:#231f1f;stroke-opacity:1;fill:#231f1f;fill-opacity:1"/><use id="use52-3" width="100%" height="100%" x="0" y="0" transform="rotate(-90)" xlink:href="#cog-0" style="stroke:#231f1f;stroke-opacity:1;fill:#231f1f;fill-opacity:1"/><use id="use54-6" width="100%" height="100%" x="0" y="0" transform="rotate(-78.75)" xlink:href="#cog-0" style="stroke:#231f1f;stroke-opacity:1;fill:#231f1f;fill-opacity:1"/><use id="use56-1" width="100%" height="100%" x="0" y="0" transform="rotate(-67.5)" xlink:href="#cog-0" style="stroke:#231f1f;stroke-opacity:1;fill:#231f1f;fill-opacity:1"/><use id="use58-2" width="100%" height="100%" x="0" y="0" transform="rotate(-56.25)" xlink:href="#cog-0" style="stroke:#231f1f;stroke-opacity:1;fill:#231f1f;fill-opacity:1"/><use id="use60-9" width="100%" height="100%" x="0" y="0" transform="rotate(-45)" xlink:href="#cog-0" style="stroke:#231f1f;stroke-opacity:1;fill:#231f1f;fill-opacity:1"/><use id="use62-3" width="100%" height="100%" x="0" y="0" transform="rotate(-33.75)" xlink:href="#cog-0" style="stroke:#231f1f;stroke-opacity:1;fill:#231f1f;fill-opacity:1"/><use id="use64-1" width="100%" height="100%" x="0" y="0" transform="rotate(-22.5)" xlink:href="#cog-0" style="stroke:#231f1f;stroke-opacity:1;fill:#231f1f;fill-opacity:1"/><use id="use66-9" width="100%" height="100%" x="0" y="0" transform="rotate(-11.25)" xlink:href="#cog-0" style="stroke:#231f1f;stroke-opacity:1;fill:#231f1f;fill-opacity:1"/></g><g id="mounts-4"><polygon style="stroke:#231f1f;stroke-width:6;stroke-linejoin:round;fill:#231f1f;fill-opacity:1;stroke-opacity:1" id="mount-7" points="7 -42 -7 -42 0 -35"/><use id="use70-8" width="100%" height="100%" x="0" y="0" transform="rotate(72)" xlink:href="#mount-7" style="fill:#231f1f;fill-opacity:1;stroke:#231f1f;stroke-opacity:1"/><use id="use72-4" width="100%" height="100%" x="0" y="0" transform="rotate(144)" xlink:href="#mount-7" style="fill:#231f1f;fill-opacity:1;stroke:#231f1f;stroke-opacity:1"/><use id="use74-5" width="100%" height="100%" x="0" y="0" transform="rotate(-144)" xlink:href="#mount-7" style="fill:#231f1f;fill-opacity:1;stroke:#231f1f;stroke-opacity:1"/><use id="use76-0" width="100%" height="100%" x="0" y="0" transform="rotate(-72)" xlink:href="#mount-7" style="fill:#231f1f;fill-opacity:1;stroke:#231f1f;stroke-opacity:1"/></g></g><mask id="mask975"><rect style="fill:#fff" id="rect963" width="120" height="120" x="-60" y="-60"/><circle id="circle965" cx="0" cy="-40" r="3"/><use id="use967" width="100%" height="100%" x="0" y="0" transform="rotate(72)" xlink:href="#hole-7"/><use id="use969" width="100%" height="100%" x="0" y="0" transform="rotate(144)" xlink:href="#hole-7"/><use id="use971" width="100%" height="100%" x="0" y="0" transform="rotate(-144)" xlink:href="#hole-7"/><use id="use973" width="100%" height="100%" x="0" y="0" transform="rotate(-72)" xlink:href="#hole-7"/></mask></g><g id="logo-2-9" transform="translate(215.46472,52.499858)"><path style="stroke:#231f1f;stroke-width:1;stroke-linejoin:round;stroke-opacity:1;fill:#231f1f;fill-opacity:1" id="r-9-4" d="M -9,-15 H 4 c 8,0 8,8 0,8 H -9 Z m 34.857524,4 C 25.974788,-17.806102 19.517425,-26 12,-26 h -47 v 11 h 10 V 11 H -40 V 22 H 0 V 11 H -9 V 3 h 21 c 7.562185,0 13.74441,-7.4348071 13.857524,-14 z" transform="translate(0.5,0.5)"/><g id="gear-1-9" mask="url(#holes-3-2)"><circle style="fill:none;stroke:#231f1f;stroke-width:9;stroke-opacity:1" id="circle3-2-0" cx="0" cy="0" r="43"/><g id="cogs-7-9" style="stroke:#231f1f;stroke-opacity:1;fill:#231f1f;fill-opacity:1"><polygon style="stroke:#231f1f;stroke-width:3;stroke-linejoin:round;stroke-opacity:1;fill:#231f1f;fill-opacity:1" id="cog-0-1" points="46 -3 46 3 51 0"/><use id="use6-9-7" width="100%" height="100%" x="0" y="0" transform="rotate(11.25)" xlink:href="#cog-0-1" style="stroke:#231f1f;stroke-opacity:1;fill:#231f1f;fill-opacity:1"/><use id="use8-3-7" width="100%" height="100%" x="0" y="0" transform="rotate(22.5)" xlink:href="#cog-0-1" style="stroke:#231f1f;stroke-opacity:1;fill:#231f1f;fill-opacity:1"/><use id="use10-6-1" width="100%" height="100%" x="0" y="0" transform="rotate(33.75)" xlink:href="#cog-0-1" style="stroke:#231f1f;stroke-opacity:1;fill:#231f1f;fill-opacity:1"/><use id="use12-0-1" width="100%" height="100%" x="0" y="0" transform="rotate(45)" xlink:href="#cog-0-1" style="stroke:#231f1f;stroke-opacity:1;fill:#231f1f;fill-opacity:1"/><use id="use14-6-5" width="100%" height="100%" x="0" y="0" transform="rotate(56.25)" xlink:href="#cog-0-1" style="stroke:#231f1f;stroke-opacity:1;fill:#231f1f;fill-opacity:1"/><use id="use16-2-9" width="100%" height="100%" x="0" y="0" transform="rotate(67.5)" xlink:href="#cog-0-1" style="stroke:#231f1f;stroke-opacity:1;fill:#231f1f;fill-opacity:1"/><use id="use18-6-7" width="100%" height="100%" x="0" y="0" transform="rotate(78.75)" xlink:href="#cog-0-1" style="stroke:#231f1f;stroke-opacity:1;fill:#231f1f;fill-opacity:1"/><use id="use20-1-7" width="100%" height="100%" x="0" y="0" transform="rotate(90)" xlink:href="#cog-0-1" style="stroke:#231f1f;stroke-opacity:1;fill:#231f1f;fill-opacity:1"/><use id="use22-8-6" width="100%" height="100%" x="0" y="0" transform="rotate(101.25)" xlink:href="#cog-0-1" style="stroke:#231f1f;stroke-opacity:1;fill:#231f1f;fill-opacity:1"/><use id="use24-7-7" width="100%" height="100%" x="0" y="0" transform="rotate(112.5)" xlink:href="#cog-0-1" style="stroke:#231f1f;stroke-opacity:1;fill:#231f1f;fill-opacity:1"/><use id="use26-9-3" width="100%" height="100%" x="0" y="0" transform="rotate(123.75)" xlink:href="#cog-0-1" style="stroke:#231f1f;stroke-opacity:1;fill:#231f1f;fill-opacity:1"/><use id="use28-2-6" width="100%" height="100%" x="0" y="0" transform="rotate(135)" xlink:href="#cog-0-1" style="stroke:#231f1f;stroke-opacity:1;fill:#231f1f;fill-opacity:1"/><use id="use30-0-5" width="100%" height="100%" x="0" y="0" transform="rotate(146.25)" xlink:href="#cog-0-1" style="stroke:#231f1f;stroke-opacity:1;fill:#231f1f;fill-opacity:1"/><use id="use32-2-6" width="100%" height="100%" x="0" y="0" transform="rotate(157.5)" xlink:href="#cog-0-1" style="stroke:#231f1f;stroke-opacity:1;fill:#231f1f;fill-opacity:1"/><use id="use34-3-3" width="100%" height="100%" x="0" y="0" transform="rotate(168.75)" xlink:href="#cog-0-1" style="stroke:#231f1f;stroke-opacity:1;fill:#231f1f;fill-opacity:1"/><use id="use36-7-9" width="100%" height="100%" x="0" y="0" transform="scale(-1)" xlink:href="#cog-0-1" style="stroke:#231f1f;stroke-opacity:1;fill:#231f1f;fill-opacity:1"/><use id="use38-5-4" width="100%" height="100%" x="0" y="0" transform="rotate(-168.75)" xlink:href="#cog-0-1" style="stroke:#231f1f;stroke-opacity:1;fill:#231f1f;fill-opacity:1"/><use id="use40-9-8" width="100%" height="100%" x="0" y="0" transform="rotate(-157.5)" xlink:href="#cog-0-1" style="stroke:#231f1f;stroke-opacity:1;fill:#231f1f;fill-opacity:1"/><use id="use42-2-1" width="100%" height="100%" x="0" y="0" transform="rotate(-146.25)" xlink:href="#cog-0-1" style="stroke:#231f1f;stroke-opacity:1;fill:#231f1f;fill-opacity:1"/><use id="use44-2-2" width="100%" height="100%" x="0" y="0" transform="rotate(-135)" xlink:href="#cog-0-1" style="stroke:#231f1f;stroke-opacity:1;fill:#231f1f;fill-opacity:1"/><use id="use46-8-9" width="100%" height="100%" x="0" y="0" transform="rotate(-123.75)" xlink:href="#cog-0-1" style="stroke:#231f1f;stroke-opacity:1;fill:#231f1f;fill-opacity:1"/><use id="use48-9-3" width="100%" height="100%" x="0" y="0" transform="rotate(-112.5)" xlink:href="#cog-0-1" style="stroke:#231f1f;stroke-opacity:1;fill:#231f1f;fill-opacity:1"/><use id="use50-7-9" width="100%" height="100%" x="0" y="0" transform="rotate(-101.25)" xlink:href="#cog-0-1" style="stroke:#231f1f;stroke-opacity:1;fill:#231f1f;fill-opacity:1"/><use id="use52-3-0" width="100%" height="100%" x="0" y="0" transform="rotate(-90)" xlink:href="#cog-0-1" style="stroke:#231f1f;stroke-opacity:1;fill:#231f1f;fill-opacity:1"/><use id="use54-6-8" width="100%" height="100%" x="0" y="0" transform="rotate(-78.75)" xlink:href="#cog-0-1" style="stroke:#231f1f;stroke-opacity:1;fill:#231f1f;fill-opacity:1"/><use id="use56-1-8" width="100%" height="100%" x="0" y="0" transform="rotate(-67.5)" xlink:href="#cog-0-1" style="stroke:#231f1f;stroke-opacity:1;fill:#231f1f;fill-opacity:1"/><use id="use58-2-5" width="100%" height="100%" x="0" y="0" transform="rotate(-56.25)" xlink:href="#cog-0-1" style="stroke:#231f1f;stroke-opacity:1;fill:#231f1f;fill-opacity:1"/><use id="use60-9-0" width="100%" height="100%" x="0" y="0" transform="rotate(-45)" xlink:href="#cog-0-1" style="stroke:#231f1f;stroke-opacity:1;fill:#231f1f;fill-opacity:1"/><use id="use62-3-9" width="100%" height="100%" x="0" y="0" transform="rotate(-33.75)" xlink:href="#cog-0-1" style="stroke:#231f1f;stroke-opacity:1;fill:#231f1f;fill-opacity:1"/><use id="use64-1-6" width="100%" height="100%" x="0" y="0" transform="rotate(-22.5)" xlink:href="#cog-0-1" style="stroke:#231f1f;stroke-opacity:1;fill:#231f1f;fill-opacity:1"/><use id="use66-9-3" width="100%" height="100%" x="0" y="0" transform="rotate(-11.25)" xlink:href="#cog-0-1" style="stroke:#231f1f;stroke-opacity:1;fill:#231f1f;fill-opacity:1"/></g><g id="mounts-4-8" style="stroke:#231f1f;stroke-opacity:1;fill:#231f1f;fill-opacity:1"><polygon style="stroke:#231f1f;stroke-width:6;stroke-linejoin:round;stroke-opacity:1;fill:#231f1f;fill-opacity:1" id="mount-7-5" points="7 -42 -7 -42 0 -35"/><use id="use70-8-6" width="100%" height="100%" x="0" y="0" transform="rotate(72)" xlink:href="#mount-7-5" style="stroke:#231f1f;stroke-opacity:1;fill:#231f1f;fill-opacity:1"/><use id="use72-4-1" width="100%" height="100%" x="0" y="0" transform="rotate(144)" xlink:href="#mount-7-5" style="stroke:#231f1f;stroke-opacity:1;fill:#231f1f;fill-opacity:1"/><use id="use74-5-1" width="100%" height="100%" x="0" y="0" transform="rotate(-144)" xlink:href="#mount-7-5" style="stroke:#231f1f;stroke-opacity:1;fill:#231f1f;fill-opacity:1"/><use id="use76-0-5" width="100%" height="100%" x="0" y="0" transform="rotate(-72)" xlink:href="#mount-7-5" style="stroke:#231f1f;stroke-opacity:1;fill:#231f1f;fill-opacity:1"/></g></g><mask id="mask975-9"><rect style="fill:#fff" id="rect963-8" width="120" height="120" x="-60" y="-60"/><circle id="circle965-4" cx="0" cy="-40" r="3"/><use id="use967-8" width="100%" height="100%" x="0" y="0" transform="rotate(72)" xlink:href="#hole-7-1"/><use id="use969-1" width="100%" height="100%" x="0" y="0" transform="rotate(144)" xlink:href="#hole-7-1"/><use id="use971-0" width="100%" height="100%" x="0" y="0" transform="rotate(-144)" xlink:href="#hole-7-1"/><use id="use973-3" width="100%" height="100%" x="0" y="0" transform="rotate(-72)" xlink:href="#hole-7-1"/></mask></g><g id="logo-2-9-1" transform="translate(296.94716,112.93943)"><path style="fill:#231f1f;fill-opacity:1;stroke:#231f1f;stroke-width:1;stroke-linejoin:round;stroke-opacity:1" id="r-9-4-7" d="m 262.94727,87.939453 v 11 h 10 v 25.999997 h -15 v 11 h 40 v -11 h -9 v -8 h 14.79687 v 1.65235 h 7.80469 v -13.30469 h -7.80469 v 1.65234 h -14.79687 v -7.999997 h 42.34983 v -11 z" transform="translate(-297.4473,-113.43957)"/><g id="gear-1-9-5" mask="url(#holes-3-2-4)"><circle style="fill:none;stroke:#231f1f;stroke-width:9;stroke-opacity:1" id="circle3-2-0-9" cx="0" cy="0" r="43"/><g id="cogs-7-9-6" style="fill:#231f1f;fill-opacity:1;stroke:#231f1f;stroke-opacity:1"><polygon style="stroke:#231f1f;stroke-width:3;stroke-linejoin:round;fill:#231f1f;fill-opacity:1;stroke-opacity:1" id="cog-0-1-2" points="46 3 51 0 46 -3"/><use id="use6-9-7-1" width="100%" height="100%" x="0" y="0" transform="rotate(11.25)" xlink:href="#cog-0-1-2" style="fill:#231f1f;fill-opacity:1;stroke:#231f1f;stroke-opacity:1"/><use id="use8-3-7-7" width="100%" height="100%" x="0" y="0" transform="rotate(22.5)" xlink:href="#cog-0-1-2" style="fill:#231f1f;fill-opacity:1;stroke:#231f1f;stroke-opacity:1"/><use id="use10-6-1-8" width="100%" height="100%" x="0" y="0" transform="rotate(33.75)" xlink:href="#cog-0-1-2" style="fill:#231f1f;fill-opacity:1;stroke:#231f1f;stroke-opacity:1"/><use id="use12-0-1-5" width="100%" height="100%" x="0" y="0" transform="rotate(45)" xlink:href="#cog-0-1-2" style="fill:#231f1f;fill-opacity:1;stroke:#231f1f;stroke-opacity:1"/><use id="use14-6-5-7" width="100%" height="100%" x="0" y="0" transform="rotate(56.25)" xlink:href="#cog-0-1-2" style="fill:#231f1f;fill-opacity:1;stroke:#231f1f;stroke-opacity:1"/><use id="use16-2-9-4" width="100%" height="100%" x="0" y="0" transform="rotate(67.5)" xlink:href="#cog-0-1-2" style="fill:#231f1f;fill-opacity:1;stroke:#231f1f;stroke-opacity:1"/><use id="use18-6-7-1" width="100%" height="100%" x="0" y="0" transform="rotate(78.75)" xlink:href="#cog-0-1-2" style="fill:#231f1f;fill-opacity:1;stroke:#231f1f;stroke-opacity:1"/><use id="use20-1-7-8" width="100%" height="100%" x="0" y="0" transform="rotate(90)" xlink:href="#cog-0-1-2" style="fill:#231f1f;fill-opacity:1;stroke:#231f1f;stroke-opacity:1"/><use id="use22-8-6-5" width="100%" height="100%" x="0" y="0" transform="rotate(101.25)" xlink:href="#cog-0-1-2" style="fill:#231f1f;fill-opacity:1;stroke:#231f1f;stroke-opacity:1"/><use id="use24-7-7-9" width="100%" height="100%" x="0" y="0" transform="rotate(112.5)" xlink:href="#cog-0-1-2" style="fill:#231f1f;fill-opacity:1;stroke:#231f1f;stroke-opacity:1"/><use id="use26-9-3-7" width="100%" height="100%" x="0" y="0" transform="rotate(123.75)" xlink:href="#cog-0-1-2" style="fill:#231f1f;fill-opacity:1;stroke:#231f1f;stroke-opacity:1"/><use id="use28-2-6-5" width="100%" height="100%" x="0" y="0" transform="rotate(135)" xlink:href="#cog-0-1-2" style="fill:#231f1f;fill-opacity:1;stroke:#231f1f;stroke-opacity:1"/><use id="use30-0-5-3" width="100%" height="100%" x="0" y="0" transform="rotate(146.25)" xlink:href="#cog-0-1-2" style="fill:#231f1f;fill-opacity:1;stroke:#231f1f;stroke-opacity:1"/><use id="use32-2-6-8" width="100%" height="100%" x="0" y="0" transform="rotate(157.5)" xlink:href="#cog-0-1-2" style="fill:#231f1f;fill-opacity:1;stroke:#231f1f;stroke-opacity:1"/><use id="use34-3-3-8" width="100%" height="100%" x="0" y="0" transform="rotate(168.75)" xlink:href="#cog-0-1-2" style="fill:#231f1f;fill-opacity:1;stroke:#231f1f;stroke-opacity:1"/><use id="use36-7-9-3" width="100%" height="100%" x="0" y="0" transform="scale(-1)" xlink:href="#cog-0-1-2" style="fill:#231f1f;fill-opacity:1;stroke:#231f1f;stroke-opacity:1"/><use id="use38-5-4-1" width="100%" height="100%" x="0" y="0" transform="rotate(-168.75)" xlink:href="#cog-0-1-2" style="fill:#231f1f;fill-opacity:1;stroke:#231f1f;stroke-opacity:1"/><use id="use40-9-8-8" width="100%" height="100%" x="0" y="0" transform="rotate(-157.5)" xlink:href="#cog-0-1-2" style="fill:#231f1f;fill-opacity:1;stroke:#231f1f;stroke-opacity:1"/><use id="use42-2-1-9" width="100%" height="100%" x="0" y="0" transform="rotate(-146.25)" xlink:href="#cog-0-1-2" style="fill:#231f1f;fill-opacity:1;stroke:#231f1f;stroke-opacity:1"/><use id="use44-2-2-6" width="100%" height="100%" x="0" y="0" transform="rotate(-135)" xlink:href="#cog-0-1-2" style="fill:#231f1f;fill-opacity:1;stroke:#231f1f;stroke-opacity:1"/><use id="use46-8-9-4" width="100%" height="100%" x="0" y="0" transform="rotate(-123.75)" xlink:href="#cog-0-1-2" style="fill:#231f1f;fill-opacity:1;stroke:#231f1f;stroke-opacity:1"/><use id="use48-9-3-3" width="100%" height="100%" x="0" y="0" transform="rotate(-112.5)" xlink:href="#cog-0-1-2" style="fill:#231f1f;fill-opacity:1;stroke:#231f1f;stroke-opacity:1"/><use id="use50-7-9-3" width="100%" height="100%" x="0" y="0" transform="rotate(-101.25)" xlink:href="#cog-0-1-2" style="fill:#231f1f;fill-opacity:1;stroke:#231f1f;stroke-opacity:1"/><use id="use52-3-0-3" width="100%" height="100%" x="0" y="0" transform="rotate(-90)" xlink:href="#cog-0-1-2" style="fill:#231f1f;fill-opacity:1;stroke:#231f1f;stroke-opacity:1"/><use id="use54-6-8-8" width="100%" height="100%" x="0" y="0" transform="rotate(-78.75)" xlink:href="#cog-0-1-2" style="fill:#231f1f;fill-opacity:1;stroke:#231f1f;stroke-opacity:1"/><use id="use56-1-8-6" width="100%" height="100%" x="0" y="0" transform="rotate(-67.5)" xlink:href="#cog-0-1-2" style="fill:#231f1f;fill-opacity:1;stroke:#231f1f;stroke-opacity:1"/><use id="use58-2-5-0" width="100%" height="100%" x="0" y="0" transform="rotate(-56.25)" xlink:href="#cog-0-1-2" style="fill:#231f1f;fill-opacity:1;stroke:#231f1f;stroke-opacity:1"/><use id="use60-9-0-4" width="100%" height="100%" x="0" y="0" transform="rotate(-45)" xlink:href="#cog-0-1-2" style="fill:#231f1f;fill-opacity:1;stroke:#231f1f;stroke-opacity:1"/><use id="use62-3-9-8" width="100%" height="100%" x="0" y="0" transform="rotate(-33.75)" xlink:href="#cog-0-1-2" style="fill:#231f1f;fill-opacity:1;stroke:#231f1f;stroke-opacity:1"/><use id="use64-1-6-8" width="100%" height="100%" x="0" y="0" transform="rotate(-22.5)" xlink:href="#cog-0-1-2" style="fill:#231f1f;fill-opacity:1;stroke:#231f1f;stroke-opacity:1"/><use id="use66-9-3-8" width="100%" height="100%" x="0" y="0" transform="rotate(-11.25)" xlink:href="#cog-0-1-2" style="fill:#231f1f;fill-opacity:1;stroke:#231f1f;stroke-opacity:1"/></g><g id="mounts-4-8-9" style="stroke:#231f1f;stroke-opacity:1;fill:#231f1f;fill-opacity:1"><polygon style="stroke:#231f1f;stroke-width:6;stroke-linejoin:round;stroke-opacity:1;fill:#231f1f;fill-opacity:1" id="mount-7-5-7" points="-7 -42 0 -35 7 -42"/><use id="use70-8-6-7" width="100%" height="100%" x="0" y="0" transform="rotate(72)" xlink:href="#mount-7-5-7" style="stroke:#231f1f;stroke-opacity:1;fill:#231f1f;fill-opacity:1"/><use id="use72-4-1-6" width="100%" height="100%" x="0" y="0" transform="rotate(144)" xlink:href="#mount-7-5-7" style="stroke:#231f1f;stroke-opacity:1;fill:#231f1f;fill-opacity:1"/><use id="use74-5-1-4" width="100%" height="100%" x="0" y="0" transform="rotate(-144)" xlink:href="#mount-7-5-7" style="stroke:#231f1f;stroke-opacity:1;fill:#231f1f;fill-opacity:1"/><use id="use76-0-5-3" width="100%" height="100%" x="0" y="0" transform="rotate(-72)" xlink:href="#mount-7-5-7" style="stroke:#231f1f;stroke-opacity:1;fill:#231f1f;fill-opacity:1"/></g></g><mask id="mask975-9-0"><rect style="fill:#fff" id="rect963-8-3" width="120" height="120" x="-60" y="-60"/><circle id="circle965-4-0" cx="0" cy="-40" r="3"/><use id="use967-8-9" width="100%" height="100%" x="0" y="0" transform="rotate(72)" xlink:href="#hole-7-1-4"/><use id="use969-1-2" width="100%" height="100%" x="0" y="0" transform="rotate(144)" xlink:href="#hole-7-1-4"/><use id="use971-0-5" width="100%" height="100%" x="0" y="0" transform="rotate(-144)" xlink:href="#hole-7-1-4"/><use id="use973-3-4" width="100%" height="100%" x="0" y="0" transform="rotate(-72)" xlink:href="#hole-7-1-4"/></mask></g></svg>